<svg xmlns="http://www.w3.org/2000/svg" viewBox="0 0 16 16" fill="none">
  <rect width="16" height="16" rx="4" fill="#020617"/>
  <path d="M15 .5a.5.5 0 0 0-.724-.447l-8 4A.5.5 0 0 0 6 4.5v3.14L.342 9.526A.5.5 0 0 0 0 10v5.5a.5.5 0 0 0 .5.5h9a.5.5 0 0 0 .5-.5V14h1v1.5a.5.5 0 0 0 .5.5h3a.5.5 0 0 0 .5-.5V.5zM2 11h1v1H2v-1zm2 0h1v1H4v-1zm-1 2v1H2v-1h1zm1 0h1v1H4v-1zm9-10v1h-1V3h1zM8 5h1v1H8V5zm1 2v1H8V7h1zM8 9h1v1H8V9zm2 0h1v1h-1V9zm-1 2v1H8v-1h1zm1 0h1v1h-1v-1zm3-2v1h-1V9h1zm-1 2v1h-1v-1h1zm-2-4h1v1h-1V7zm3 0h1v1h-1V7zm-2-2h1v1h-1V5zm3 0h1v1h-1V5z" fill="#10b981"/>
</svg>
