<svg xmlns="http://www.w3.org/2000/svg" width="800" height="500" viewBox="0 0 800 500">
  <defs>
    <linearGradient id="bg" x1="0%" y1="0%" x2="100%" y2="100%">
      <stop offset="0%" style="stop-color:#020617"/>
      <stop offset="100%" style="stop-color:#0f172a"/>
    </linearGradient>
  </defs>
  <rect width="800" height="500" fill="url(#bg)"/>
  <!-- Grid -->
  <g opacity="0.05" stroke="#10b981" stroke-width="0.5">
    <line x1="0" y1="40" x2="800" y2="40"/><line x1="0" y1="80" x2="800" y2="80"/>
    <line x1="0" y1="120" x2="800" y2="120"/><line x1="0" y1="160" x2="800" y2="160"/>
    <line x1="0" y1="200" x2="800" y2="200"/><line x1="0" y1="240" x2="800" y2="240"/>
    <line x1="0" y1="280" x2="800" y2="280"/><line x1="0" y1="320" x2="800" y2="320"/>
    <line x1="0" y1="360" x2="800" y2="360"/><line x1="0" y1="400" x2="800" y2="400"/>
    <line x1="0" y1="440" x2="800" y2="440"/><line x1="0" y1="480" x2="800" y2="480"/>
    <line x1="40" y1="0" x2="40" y2="500"/><line x1="80" y1="0" x2="80" y2="500"/>
    <line x1="120" y1="0" x2="120" y2="500"/><line x1="160" y1="0" x2="160" y2="500"/>
  </g>
  <!-- Document icon -->
  <rect x="280" y="100" width="240" height="300" rx="12" fill="#0f172a" stroke="#10b981" stroke-opacity="0.3" stroke-width="2"/>
  <!-- Document lines -->
  <rect x="310" y="140" width="180" height="8" rx="4" fill="#10b981" opacity="0.3"/>
  <rect x="310" y="165" width="140" height="6" rx="3" fill="#10b981" opacity="0.15"/>
  <rect x="310" y="185" width="160" height="6" rx="3" fill="#10b981" opacity="0.1"/>
  <rect x="310" y="205" width="120" height="6" rx="3" fill="#10b981" opacity="0.1"/>
  <!-- Chart area -->
  <rect x="310" y="235" width="180" height="80" rx="6" fill="#10b981" opacity="0.05" stroke="#10b981" stroke-opacity="0.15"/>
  <polyline points="320,300 340,280 360,290 380,260 400,275 420,250 440,265 460,245 480,255" fill="none" stroke="#10b981" stroke-opacity="0.5" stroke-width="2"/>
  <!-- More lines -->
  <rect x="310" y="335" width="160" height="6" rx="3" fill="#10b981" opacity="0.15"/>
  <rect x="310" y="355" width="130" height="6" rx="3" fill="#10b981" opacity="0.1"/>
  <rect x="310" y="375" width="150" height="6" rx="3" fill="#10b981" opacity="0.1"/>
  <!-- Decorative elements -->
  <circle cx="400" cy="250" r="150" fill="#10b981" opacity="0.02"/>
  <text x="50" y="470" fill="#10b981" opacity="0.2" font-family="monospace" font-size="10">INTEL_REPORT_CLASSIFIED</text>
</svg>
