<svg xmlns="http://www.w3.org/2000/svg" width="800" height="400" viewBox="0 0 800 400">
  <defs>
    <linearGradient id="bg" x1="0%" y1="0%" x2="100%" y2="100%">
      <stop offset="0%" style="stop-color:#020617"/>
      <stop offset="100%" style="stop-color:#0f172a"/>
    </linearGradient>
  </defs>
  <rect width="800" height="400" fill="url(#bg)"/>
  <!-- Grid -->
  <g opacity="0.08" stroke="#10b981" stroke-width="0.5">
    <line x1="0" y1="40" x2="800" y2="40"/><line x1="0" y1="80" x2="800" y2="80"/>
    <line x1="0" y1="120" x2="800" y2="120"/><line x1="0" y1="160" x2="800" y2="160"/>
    <line x1="0" y1="200" x2="800" y2="200"/><line x1="0" y1="240" x2="800" y2="240"/>
    <line x1="0" y1="280" x2="800" y2="280"/><line x1="0" y1="320" x2="800" y2="320"/>
    <line x1="0" y1="360" x2="800" y2="360"/>
    <line x1="40" y1="0" x2="40" y2="400"/><line x1="80" y1="0" x2="80" y2="400"/>
    <line x1="120" y1="0" x2="120" y2="400"/><line x1="160" y1="0" x2="160" y2="400"/>
    <line x1="200" y1="0" x2="200" y2="400"/><line x1="240" y1="0" x2="240" y2="400"/>
    <line x1="280" y1="0" x2="280" y2="400"/><line x1="320" y1="0" x2="320" y2="400"/>
    <line x1="360" y1="0" x2="360" y2="400"/><line x1="400" y1="0" x2="400" y2="400"/>
    <line x1="440" y1="0" x2="440" y2="400"/><line x1="480" y1="0" x2="480" y2="400"/>
    <line x1="520" y1="0" x2="520" y2="400"/><line x1="560" y1="0" x2="560" y2="400"/>
    <line x1="600" y1="0" x2="600" y2="400"/><line x1="640" y1="0" x2="640" y2="400"/>
    <line x1="680" y1="0" x2="680" y2="400"/><line x1="720" y1="0" x2="720" y2="400"/>
    <line x1="760" y1="0" x2="760" y2="400"/>
  </g>
  <!-- Continent outlines (stylized) -->
  <path d="M150,120 Q200,80 280,100 Q340,110 360,140 Q380,170 350,200 Q320,230 280,220 Q220,210 180,180 Q140,150 150,120Z" fill="#10b981" opacity="0.08" stroke="#10b981" stroke-opacity="0.2"/>
  <path d="M420,80 Q480,60 540,90 Q580,110 600,160 Q610,200 580,230 Q550,250 500,240 Q450,230 430,190 Q410,150 420,80Z" fill="#10b981" opacity="0.08" stroke="#10b981" stroke-opacity="0.2"/>
  <path d="M200,260 Q240,240 300,260 Q340,280 330,320 Q310,350 260,340 Q210,330 200,260Z" fill="#10b981" opacity="0.06" stroke="#10b981" stroke-opacity="0.15"/>
  <path d="M620,180 Q680,160 720,200 Q740,240 720,280 Q690,310 650,290 Q610,260 620,180Z" fill="#10b981" opacity="0.06" stroke="#10b981" stroke-opacity="0.15"/>
  <!-- Location pins -->
  <g>
    <circle cx="400" cy="150" r="8" fill="#10b981" opacity="0.8"/>
    <circle cx="400" cy="150" r="16" fill="none" stroke="#10b981" stroke-opacity="0.3" stroke-width="2">
      <animate attributeName="r" from="12" to="24" dur="2s" repeatCount="indefinite"/>
      <animate attributeName="stroke-opacity" from="0.4" to="0" dur="2s" repeatCount="indefinite"/>
    </circle>
    <circle cx="300" cy="180" r="5" fill="#10b981" opacity="0.5"/>
    <circle cx="550" cy="120" r="5" fill="#10b981" opacity="0.5"/>
    <circle cx="650" cy="220" r="5" fill="#10b981" opacity="0.5"/>
  </g>
  <!-- Connection lines -->
  <line x1="300" y1="180" x2="400" y2="150" stroke="#10b981" stroke-opacity="0.15" stroke-width="1" stroke-dasharray="4,4"/>
  <line x1="400" y1="150" x2="550" y2="120" stroke="#10b981" stroke-opacity="0.15" stroke-width="1" stroke-dasharray="4,4"/>
  <line x1="550" y1="120" x2="650" y2="220" stroke="#10b981" stroke-opacity="0.15" stroke-width="1" stroke-dasharray="4,4"/>
  <!-- Labels -->
  <text x="30" y="30" fill="#10b981" opacity="0.25" font-family="monospace" font-size="10">OPERATIONAL_GRID_MAP</text>
  <text x="30" y="385" fill="#10b981" opacity="0.25" font-family="monospace" font-size="10">NODES: 45+ ACTIVE | STATUS: ONLINE</text>
  <text x="550" y="385" fill="#10b981" opacity="0.25" font-family="monospace" font-size="10">LAT: 40.7128° N | LON: 74.0060° W</text>
</svg>
