<svg xmlns="http://www.w3.org/2000/svg" width="800" height="600" viewBox="0 0 800 600">
  <defs>
    <linearGradient id="bg" x1="0%" y1="0%" x2="100%" y2="100%">
      <stop offset="0%" style="stop-color:#020617"/>
      <stop offset="100%" style="stop-color:#0f172a"/>
    </linearGradient>
    <linearGradient id="accent" x1="0%" y1="0%" x2="100%" y2="0%">
      <stop offset="0%" style="stop-color:#10b981"/>
      <stop offset="100%" style="stop-color:#059669"/>
    </linearGradient>
  </defs>
  <rect width="800" height="600" fill="url(#bg)"/>
  <!-- Grid pattern -->
  <g opacity="0.06" stroke="#10b981" stroke-width="0.5">
    <line x1="0" y1="0" x2="0" y2="600"/><line x1="40" y1="0" x2="40" y2="600"/>
    <line x1="80" y1="0" x2="80" y2="600"/><line x1="120" y1="0" x2="120" y2="600"/>
    <line x1="160" y1="0" x2="160" y2="600"/><line x1="200" y1="0" x2="200" y2="600"/>
    <line x1="240" y1="0" x2="240" y2="600"/><line x1="280" y1="0" x2="280" y2="600"/>
    <line x1="320" y1="0" x2="320" y2="600"/><line x1="360" y1="0" x2="360" y2="600"/>
    <line x1="400" y1="0" x2="400" y2="600"/><line x1="440" y1="0" x2="440" y2="600"/>
    <line x1="480" y1="0" x2="480" y2="600"/><line x1="520" y1="0" x2="520" y2="600"/>
    <line x1="560" y1="0" x2="560" y2="600"/><line x1="600" y1="0" x2="600" y2="600"/>
    <line x1="640" y1="0" x2="640" y2="600"/><line x1="680" y1="0" x2="680" y2="600"/>
    <line x1="720" y1="0" x2="720" y2="600"/><line x1="760" y1="0" x2="760" y2="600"/>
    <line x1="0" y1="40" x2="800" y2="40"/><line x1="0" y1="80" x2="800" y2="80"/>
    <line x1="0" y1="120" x2="800" y2="120"/><line x1="0" y1="160" x2="800" y2="160"/>
    <line x1="0" y1="200" x2="800" y2="200"/><line x1="0" y1="240" x2="800" y2="240"/>
    <line x1="0" y1="280" x2="800" y2="280"/><line x1="0" y1="320" x2="800" y2="320"/>
    <line x1="0" y1="360" x2="800" y2="360"/><line x1="0" y1="400" x2="800" y2="400"/>
    <line x1="0" y1="440" x2="800" y2="440"/><line x1="0" y1="480" x2="800" y2="480"/>
    <line x1="0" y1="520" x2="800" y2="520"/><line x1="0" y1="560" x2="800" y2="560"/>
  </g>
  <!-- Building silhouettes -->
  <rect x="100" y="180" width="120" height="420" rx="4" fill="#0f172a" stroke="#10b981" stroke-opacity="0.15"/>
  <rect x="240" y="120" width="100" height="480" rx="4" fill="#0f172a" stroke="#10b981" stroke-opacity="0.15"/>
  <rect x="360" y="160" width="130" height="440" rx="4" fill="#0f172a" stroke="#10b981" stroke-opacity="0.2"/>
  <rect x="510" y="200" width="90" height="400" rx="4" fill="#0f172a" stroke="#10b981" stroke-opacity="0.15"/>
  <rect x="620" y="140" width="110" height="460" rx="4" fill="#0f172a" stroke="#10b981" stroke-opacity="0.15"/>
  <!-- Windows with emerald glow -->
  <g fill="#10b981" opacity="0.3">
    <rect x="115" y="200" width="18" height="12" rx="2"/><rect x="140" y="200" width="18" height="12" rx="2"/>
    <rect x="165" y="200" width="18" height="12" rx="2"/><rect x="190" y="200" width="18" height="12" rx="2"/>
    <rect x="115" y="230" width="18" height="12" rx="2"/><rect x="140" y="230" width="18" height="12" rx="2"/>
    <rect x="165" y="230" width="18" height="12" rx="2"/><rect x="190" y="230" width="18" height="12" rx="2"/>
    <rect x="115" y="260" width="18" height="12" rx="2"/><rect x="140" y="260" width="18" height="12" rx="2"/>
    <rect x="165" y="260" width="18" height="12" rx="2"/><rect x="190" y="260" width="18" height="12" rx="2"/>
    <rect x="115" y="290" width="18" height="12" rx="2"/><rect x="140" y="290" width="18" height="12" rx="2"/>
    <rect x="115" y="320" width="18" height="12" rx="2"/><rect x="140" y="320" width="18" height="12" rx="2"/>
  </g>
  <g fill="#10b981" opacity="0.5">
    <rect x="255" y="140" width="16" height="10" rx="2"/><rect x="278" y="140" width="16" height="10" rx="2"/>
    <rect x="301" y="140" width="16" height="10" rx="2"/>
    <rect x="255" y="165" width="16" height="10" rx="2"/><rect x="278" y="165" width="16" height="10" rx="2"/>
    <rect x="301" y="165" width="16" height="10" rx="2"/>
    <rect x="255" y="190" width="16" height="10" rx="2"/><rect x="278" y="190" width="16" height="10" rx="2"/>
    <rect x="301" y="190" width="16" height="10" rx="2"/>
    <rect x="255" y="215" width="16" height="10" rx="2"/><rect x="278" y="215" width="16" height="10" rx="2"/>
    <rect x="255" y="240" width="16" height="10" rx="2"/><rect x="278" y="240" width="16" height="10" rx="2"/>
  </g>
  <g fill="#10b981" opacity="0.35">
    <rect x="380" y="185" width="20" height="14" rx="2"/><rect x="410" y="185" width="20" height="14" rx="2"/>
    <rect x="440" y="185" width="20" height="14" rx="2"/>
    <rect x="380" y="215" width="20" height="14" rx="2"/><rect x="410" y="215" width="20" height="14" rx="2"/>
    <rect x="440" y="215" width="20" height="14" rx="2"/>
    <rect x="380" y="245" width="20" height="14" rx="2"/><rect x="410" y="245" width="20" height="14" rx="2"/>
    <rect x="440" y="245" width="20" height="14" rx="2"/>
    <rect x="380" y="275" width="20" height="14" rx="2"/><rect x="410" y="275" width="20" height="14" rx="2"/>
    <rect x="380" y="305" width="20" height="14" rx="2"/><rect x="410" y="305" width="20" height="14" rx="2"/>
  </g>
  <!-- Moving truck -->
  <rect x="280" y="460" width="180" height="100" rx="6" fill="#10b981" opacity="0.15" stroke="#10b981" stroke-opacity="0.4"/>
  <rect x="460" y="490" width="60" height="70" rx="6" fill="#10b981" opacity="0.1" stroke="#10b981" stroke-opacity="0.3"/>
  <circle cx="310" cy="570" r="16" fill="#0f172a" stroke="#10b981" stroke-opacity="0.5" stroke-width="3"/>
  <circle cx="430" cy="570" r="16" fill="#0f172a" stroke="#10b981" stroke-opacity="0.5" stroke-width="3"/>
  <!-- Emerald glow -->
  <circle cx="400" cy="300" r="200" fill="#10b981" opacity="0.03"/>
  <circle cx="400" cy="300" r="120" fill="#10b981" opacity="0.04"/>
  <!-- Data lines -->
  <line x1="50" y1="100" x2="200" y2="100" stroke="#10b981" stroke-opacity="0.2" stroke-width="1"/>
  <line x1="600" y1="80" x2="750" y2="80" stroke="#10b981" stroke-opacity="0.2" stroke-width="1"/>
  <text x="55" y="95" fill="#10b981" opacity="0.3" font-family="monospace" font-size="9">LOGISTICS_NET_01</text>
  <text x="605" y="75" fill="#10b981" opacity="0.3" font-family="monospace" font-size="9">TRANSIT_COORD_ACTIVE</text>
</svg>
